<?xml version="1.0" standalone="no"?><!DOCTYPE svg PUBLIC "-//W3C//DTD SVG 1.1//EN" "http://www.w3.org/Graphics/SVG/1.1/DTD/svg11.dtd"><svg t="1771604320025" class="icon" viewBox="0 0 1024 1024" version="1.1" xmlns="http://www.w3.org/2000/svg" p-id="4796" xmlns:xlink="http://www.w3.org/1999/xlink" width="200" height="200"><path d="M320 21.333333a42.666667 42.666667 0 1 1 0 85.333334h-128a85.333333 85.333333 0 0 0-85.333333 85.333333v128a42.666667 42.666667 0 1 1-85.333334 0v-128a170.666667 170.666667 0 0 1 170.666667-170.666667h128z m-256 640a42.666667 42.666667 0 0 1 42.666667 42.666667v128a85.333333 85.333333 0 0 0 85.333333 85.333333h128a42.666667 42.666667 0 0 1 0 85.333334h-128a170.666667 170.666667 0 0 1-170.666667-170.666667v-128a42.666667 42.666667 0 0 1 42.666667-42.666667z m896 0a42.666667 42.666667 0 0 1 42.666667 42.666667v128a170.666667 170.666667 0 0 1-170.666667 170.666667h-128a42.666667 42.666667 0 0 1 0-85.333334h128a85.333333 85.333333 0 0 0 85.333333-85.333333v-128a42.666667 42.666667 0 0 1 42.666667-42.666667zM896 469.333333a42.666667 42.666667 0 0 1 0 85.333334H128a42.666667 42.666667 0 0 1 0-85.333334h768zM832 21.333333a170.666667 170.666667 0 0 1 170.666667 170.666667v128a42.666667 42.666667 0 0 1-85.333334 0v-128a85.333333 85.333333 0 0 0-85.333333-85.333333h-128a42.666667 42.666667 0 0 1 0-85.333334h128z" p-id="4797" fill="#2c2c2c"></path></svg>